<svg xmlns="http://www.w3.org/2000/svg" width="13.782" height="13.782" viewBox="0 0 13.782 13.782">
  <path id="Path_27" data-name="Path 27" d="M16.016,12.571a8.7,8.7,0,0,1-2.733-.436.854.854,0,0,0-.237-.038.784.784,0,0,0-.544.222L10.817,14A11.542,11.542,0,0,1,5.772,8.964L7.456,7.272A.752.752,0,0,0,7.647,6.5a8.7,8.7,0,0,1-.436-2.733A.768.768,0,0,0,6.445,3H3.766A.768.768,0,0,0,3,3.766,13.015,13.015,0,0,0,16.016,16.782a.768.768,0,0,0,.766-.766v-2.68A.768.768,0,0,0,16.016,12.571ZM4.554,4.531H5.7a10.153,10.153,0,0,0,.352,1.983l-.919.926a11.476,11.476,0,0,1-.582-2.909Zm10.7,10.7a11.41,11.41,0,0,1-2.909-.582l.919-.919a9.764,9.764,0,0,0,1.991.345ZM9.891,3v7.657l2.3-2.3h4.594V3Zm5.36,3.828H11.422v-2.3H15.25Z" transform="translate(-3 -3)"/>
</svg>
