<svg xmlns="http://www.w3.org/2000/svg" width="17.276" height="24.435" viewBox="0 0 17.276 24.435">
  <path id="Path_20" data-name="Path 20" d="M492.88,428.34l7.239-4.826a.752.752,0,0,0,.335-.625.738.738,0,0,0-.016-.151.751.751,0,0,0-.6-.587l-6.958-1.284V417.1l5.295.977a.751.751,0,0,0,.553-1.364l-5.848-3.9v-4.454l8.222,5.481a.751.751,0,0,0,.833,0l8.222-5.481v4.454l-7.237,4.824a.752.752,0,0,0-.334.625.738.738,0,0,0,.015.151.751.751,0,0,0,.6.587l6.957,1.285v3.768l-5.295-.977a.751.751,0,0,0-.553,1.363l5.848,3.9v4.454l-8.222-5.481a.751.751,0,0,0-.833,0l-8.222,5.481Z" transform="translate(-492.88 -408.359)" fill="#3e3e3b"/>
</svg>
