<svg xmlns="http://www.w3.org/2000/svg" width="14.547" height="13.782" viewBox="0 0 14.547 13.782">
  <path id="Path_23" data-name="Path 23" d="M15.016,4.531V7.594H3.531V4.531H15.016m0,7.657V15.25H3.531V12.188H15.016M15.782,3H2.766A.768.768,0,0,0,2,3.766V8.36a.768.768,0,0,0,.766.766H15.782a.768.768,0,0,0,.766-.766V3.766A.768.768,0,0,0,15.782,3Zm0,7.657H2.766A.768.768,0,0,0,2,11.422v4.594a.768.768,0,0,0,.766.766H15.782a.768.768,0,0,0,.766-.766V11.422A.768.768,0,0,0,15.782,10.657Z" transform="translate(-2 -3)" fill="#3e3e3b"/>
</svg>
