<svg id="Layer_1" data-name="Layer 1" xmlns="http://www.w3.org/2000/svg" viewBox="0 0 352.48 496.28"><defs>


<style>
.company_logo_favicon{fill:#3d3f3c;}

@media (prefers-color-scheme: dark) {
      .company_logo_favicon{fill:#ffffff;}
    }
    </style>
    
    
    </defs><title>company_logo</title><path class="company_logo_favicon" d="M.9,0c4.47,2.8,7.78,4.75,11,6.88q74,49.29,148,98.62c1.94,1.29,3.91,2.55,5.82,3.88,7.12,5,14.1,4.88,21.32,0,12.39-8.43,24.93-16.63,37.4-24.94Q283,45.35,341.62,6.3c2.74-1.83,5.57-3.53,9.2-5.83a51.89,51.89,0,0,1,.69,8.81c.09,25,.47,48.1.88,73.07.1,6.57-3.38,9.37-8,12.45q-66.17,43.92-132.2,88.05c-2.22,1.47-4.44,2.94-6.63,4.46-5.68,4-8.58,9.27-7.19,16.28,1.48,7.46,6.57,11.3,13.73,12.66,11.12,2.11,22.26,4.11,33.39,6.16q50.09,9.19,100.16,18.43a50.69,50.69,0,0,1,6,2v74.73c-2.81-.24-5.33-.25-7.76-.69-32.41-5.92-64.8-12-97.24-17.76a20.88,20.88,0,0,0-10.63.66c-10.77,4.12-13.17,17.4-4.8,25.3a60.49,60.49,0,0,0,8.11,5.8c34.91,23.28,69.74,46.68,104.83,69.69a17.76,17.76,0,0,1,6.44,6.59,18.34,18.34,0,0,1,1.65,11l-.17,63.18q-.18,7.09-.35,14.18c-4-2.41-7-4.07-9.81-6Q267.51,440,193.13,390.4c-1.9-1.27-3.85-2.47-5.68-3.82a19.13,19.13,0,0,0-22.09-.18c-17.09,11.68-34.4,23-51.62,34.52-4.77,3.18-37,25.23-102.25,68.15l-11,7.21c0-1.67-.11-4.61-.18-8.27-.76-42.6,0-42.42,0-55.09q0-9.42-.17-18.83c-.08-6.21,2.46-9.57,7.34-12.8q67.07-44.39,133.9-89.12c2.22-1.48,4.52-2.85,6.61-4.49,5.09-4,7.79-9.13,6.32-15.71-1.42-6.42-5.43-10.7-11.91-12.05-10.43-2.16-20.92-4-31.39-6q-50.57-9.3-101.15-18.59c-2.89-.54-5.71-1.48-9-2.34V177.56c12,2.1,22.41,3.85,32.82,5.77,22.9,4.22,45.79,8.54,68.7,12.79a52.29,52.29,0,0,0,6.93.87c7.52.38,13.61-3.29,16-9.48s.51-13.32-5.12-17.91c-2.57-2.09-5.44-3.83-8.21-5.68C77.61,141,43.35,118,8.78,95.39a18.86,18.86,0,0,1-6.89-7A17.57,17.57,0,0,1,.11,79.2"/></svg>